<?xml version="1.0" encoding="UTF-8"?>
<svg id="Layer_2" xmlns="http://www.w3.org/2000/svg" viewBox="0 0 1000 1000">
  <g id="HEART_-_Black_on_Transparent">
    <path d="M696.34,340.72h-37.06v-37.08c0-256.98-199.36-303.64-329.64-303.64S0,46.98,0,303.64v696.36s0,0,0,0h696.34c257,0,303.66-199.36,303.66-329.64s-47-329.64-303.66-329.64ZM647.08,797.36H202.64s0,0,0,0v-444.44c0-39.92-4.36-149.44,127-149.44s127,107.08,127,149.44l-.02,190.46s0,0,0,0l188.46-.02h2c39.9,0,149.44-4.36,149.44,127s-107.08,127-149.44,127Z" fill="#212121"/>
  </g>
</svg>